<?xml version="1.0" encoding="UTF-8"?>
<!DOCTYPE svg PUBLIC "-//W3C//DTD SVG 1.1//EN" "http://www.w3.org/Graphics/SVG/1.1/DTD/svg11.dtd">
<svg xmlns="http://www.w3.org/2000/svg" version="1.1" viewBox="0 0 53 53" stroke="none">
	<rect width="100%" height="100%" fill="#ffffff"/>
	<path d="M4,4h7v1h-7z M13,4h1v4h-1z M15,4h1v1h-1z M17,4h1v1h-1z M19,4h2v1h-2z M23,4h1v4h-1z M27,4h1v1h-1z M31,4h1v2h-1z M33,4h2v1h-2z M36,4h1v1h-1z M40,4h1v1h-1z M42,4h7v1h-7z M4,5h1v6h-1z M10,5h1v6h-1z M19,5h1v1h-1z M21,5h1v4h-1z M24,5h3v1h-3z M28,5h1v9h-1z M29,5h2v2h-2z M35,5h1v1h-1z M39,5h1v4h-1z M42,5h1v6h-1z M48,5h1v6h-1z M6,6h3v3h-3z M12,6h1v6h-1z M16,6h1v3h-1z M25,6h1v1h-1z M27,6h1v3h-1z M32,6h3v1h-3z M36,6h2v1h-2z M44,6h3v3h-3z M14,7h2v2h-2z M17,7h2v2h-2z M22,7h1v1h-1z M24,7h1v6h-1z M26,7h1v2h-1z M30,7h1v2h-1z M35,7h1v1h-1z M37,7h1v1h-1z M40,7h1v2h-1z M20,8h1v3h-1z M25,8h1v1h-1z M29,8h1v1h-1z M33,8h2v1h-2z M38,8h1v1h-1z M15,9h1v1h-1z M17,9h1v1h-1z M19,9h1v1h-1z M22,9h1v8h-1z M33,9h1v1h-1z M37,9h1v1h-1z M5,10h5v1h-5z M14,10h1v1h-1z M16,10h1v2h-1z M18,10h1v8h-1z M26,10h1v1h-1z M30,10h1v1h-1z M32,10h1v2h-1z M34,10h1v1h-1z M36,10h1v2h-1z M38,10h1v3h-1z M40,10h1v2h-1z M43,10h5v1h-5z M15,11h1v2h-1z M17,11h1v1h-1z M21,11h1v1h-1z M23,11h1v2h-1z M33,11h1v1h-1z M37,11h1v6h-1z M4,12h1v2h-1z M6,12h5v1h-5z M13,12h2v2h-2z M25,12h1v4h-1z M26,12h2v1h-2z M29,12h2v1h-2z M35,12h1v5h-1z M39,12h1v1h-1z M42,12h5v1h-5z M5,13h3v1h-3z M9,13h1v3h-1z M17,13h1v2h-1z M21,13h1v4h-1z M31,13h1v1h-1z M33,13h1v7h-1z M34,13h1v1h-1z M40,13h2v1h-2z M43,13h4v1h-4z M48,13h1v1h-1z M5,14h1v1h-1z M7,14h1v2h-1z M10,14h2v1h-2z M14,14h1v1h-1z M19,14h1v1h-1z M27,14h1v1h-1z M29,14h2v1h-2z M32,14h1v1h-1z M38,14h2v2h-2z M42,14h2v2h-2z M46,14h2v2h-2z M4,15h1v2h-1z M6,15h1v2h-1z M15,15h2v1h-2z M20,15h1v8h-1z M23,15h2v1h-2z M30,15h1v2h-1z M36,15h1v1h-1z M44,15h2v1h-2z M10,16h3v1h-3z M14,16h1v2h-1z M17,16h1v1h-1z M24,16h1v3h-1z M26,16h2v1h-2z M31,16h1v1h-1z M38,16h1v1h-1z M8,17h1v3h-1z M19,17h1v3h-1z M23,17h1v1h-1z M25,17h1v1h-1z M27,17h1v1h-1z M34,17h1v1h-1z M39,17h3v1h-3z M43,17h1v1h-1z M4,18h2v1h-2z M7,18h1v1h-1z M9,18h5v1h-5z M28,18h4v1h-4z M36,18h3v1h-3z M41,18h1v7h-1z M42,18h1v1h-1z M44,18h1v2h-1z M47,18h1v9h-1z M5,19h1v3h-1z M6,19h1v1h-1z M11,19h1v3h-1z M13,19h2v3h-2z M16,19h1v5h-1z M17,19h2v1h-2z M21,19h2v2h-2z M23,19h1v1h-1z M25,19h1v1h-1z M28,19h1v2h-1z M32,19h1v1h-1z M35,19h2v1h-2z M38,19h2v2h-2z M40,19h1v1h-1z M43,19h1v1h-1z M45,19h1v3h-1z M46,19h1v1h-1z M4,20h1v2h-1z M7,20h1v1h-1z M9,20h2v1h-2z M12,20h1v10h-1z M15,20h1v1h-1z M18,20h1v5h-1z M24,20h1v3h-1z M31,20h1v4h-1z M42,20h1v1h-1z M48,20h1v2h-1z M6,21h1v2h-1z M8,21h2v1h-2z M17,21h1v2h-1z M21,21h1v2h-1z M23,21h1v1h-1z M25,21h1v1h-1z M27,21h1v2h-1z M34,21h1v1h-1z M36,21h1v3h-1z M40,21h1v11h-1z M46,21h1v1h-1z M7,22h1v1h-1z M10,22h1v1h-1z M19,22h1v1h-1z M22,22h1v3h-1z M26,22h1v1h-1z M28,22h3v1h-3z M33,22h1v6h-1z M37,22h1v3h-1z M38,22h1v1h-1z M42,22h1v3h-1z M4,23h2v1h-2z M8,23h1v7h-1z M23,23h1v1h-1z M25,23h1v2h-1z M32,23h1v1h-1z M34,23h2v2h-2z M39,23h1v4h-1z M44,23h2v3h-2z M46,23h1v1h-1z M4,24h1v1h-1z M6,24h2v1h-2z M9,24h3v1h-3z M13,24h3v1h-3z M17,24h1v1h-1z M19,24h1v1h-1z M21,24h1v1h-1z M24,24h1v6h-1z M26,24h4v1h-4z M43,24h1v1h-1z M5,25h1v4h-1z M7,25h1v1h-1z M15,25h1v4h-1z M23,25h1v3h-1z M28,25h1v5h-1z M31,25h1v1h-1z M34,25h1v1h-1z M48,25h1v1h-1z M6,26h1v1h-1z M10,26h1v1h-1z M13,26h1v1h-1z M16,26h1v1h-1z M18,26h2v4h-2z M21,26h1v1h-1z M26,26h1v1h-1z M29,26h1v2h-1z M32,26h1v2h-1z M38,26h1v3h-1z M42,26h1v1h-1z M44,26h1v3h-1z M46,26h1v2h-1z M4,27h1v1h-1z M7,27h1v1h-1z M14,27h1v1h-1z M20,27h1v1h-1z M31,27h1v1h-1z M34,27h2v3h-2z M36,27h1v1h-1z M45,27h1v1h-1z M48,27h1v1h-1z M9,28h3v1h-3z M13,28h1v1h-1z M16,28h2v1h-2z M21,28h1v1h-1z M25,28h3v1h-3z M39,28h1v4h-1z M41,28h2v2h-2z M43,28h1v1h-1z M47,28h1v1h-1z M4,29h1v1h-1z M6,29h1v5h-1z M9,29h1v1h-1z M11,29h1v2h-1z M14,29h1v1h-1z M22,29h2v1h-2z M26,29h1v1h-1z M29,29h1v1h-1z M32,29h1v1h-1z M36,29h2v2h-2z M46,29h1v3h-1z M48,29h1v1h-1z M7,30h1v1h-1z M10,30h1v1h-1z M13,30h1v5h-1z M18,30h1v1h-1z M20,30h2v2h-2z M27,30h1v1h-1z M30,30h1v1h-1z M33,30h1v1h-1z M35,30h1v1h-1z M38,30h1v3h-1z M41,30h1v1h-1z M43,30h3v1h-3z M47,30h1v4h-1z M5,31h1v1h-1z M8,31h2v1h-2z M12,31h1v1h-1z M14,31h3v1h-3z M19,31h1v5h-1z M24,31h1v2h-1z M26,31h1v1h-1z M28,31h1v2h-1z M31,31h1v1h-1z M34,31h1v1h-1z M36,31h1v1h-1z M42,31h2v1h-2z M45,31h1v2h-1z M7,32h1v1h-1z M10,32h1v1h-1z M15,32h2v2h-2z M29,32h1v3h-1z M30,32h1v1h-1z M32,32h1v4h-1z M35,32h1v3h-1z M37,32h1v1h-1z M44,32h1v1h-1z M48,32h1v2h-1z M4,33h2v2h-2z M8,33h2v1h-2z M11,33h2v1h-2z M14,33h1v2h-1z M17,33h1v3h-1z M20,33h1v2h-1z M25,33h1v5h-1z M26,33h1v1h-1z M31,33h1v1h-1z M33,33h1v3h-1z M34,33h1v1h-1z M36,33h1v1h-1z M40,33h2v1h-2z M8,34h1v1h-1z M10,34h2v1h-2z M16,34h1v1h-1z M18,34h1v1h-1z M24,34h1v1h-1z M27,34h2v1h-2z M30,34h1v1h-1z M38,34h2v1h-2z M41,34h1v1h-1z M44,34h1v3h-1z M5,35h1v1h-1z M7,35h1v2h-1z M9,35h1v3h-1z M15,35h1v1h-1z M21,35h2v1h-2z M28,35h1v3h-1z M34,35h1v1h-1z M36,35h2v1h-2z M39,35h1v1h-1z M42,35h1v2h-1z M45,35h3v1h-3z M10,36h1v1h-1z M12,36h1v1h-1z M14,36h1v2h-1z M16,36h1v3h-1z M21,36h1v1h-1z M27,36h1v1h-1z M31,36h1v1h-1z M35,36h1v7h-1z M40,36h1v3h-1z M43,36h1v1h-1z M45,36h1v1h-1z M47,36h1v2h-1z M4,37h1v1h-1z M6,37h1v1h-1z M11,37h1v1h-1z M18,37h1v3h-1z M23,37h2v1h-2z M26,37h1v4h-1z M33,37h2v1h-2z M46,37h1v1h-1z M48,37h1v1h-1z M8,38h1v3h-1z M10,38h1v1h-1z M13,38h1v3h-1z M15,38h1v1h-1z M19,38h2v2h-2z M22,38h1v1h-1z M27,38h1v1h-1z M29,38h3v2h-3z M33,38h1v1h-1z M37,38h3v1h-3z M41,38h1v3h-1z M43,38h3v1h-3z M5,39h3v1h-3z M12,39h1v3h-1z M17,39h1v1h-1z M21,39h1v2h-1z M23,39h3v1h-3z M28,39h1v8h-1z M32,39h1v1h-1z M34,39h1v1h-1z M36,39h2v1h-2z M39,39h1v1h-1z M42,39h2v2h-2z M45,39h2v1h-2z M48,39h1v1h-1z M4,40h1v1h-1z M7,40h1v1h-1z M10,40h2v1h-2z M14,40h1v5h-1z M19,40h1v1h-1z M24,40h1v8h-1z M25,40h1v1h-1z M27,40h1v1h-1z M30,40h1v2h-1z M38,40h1v1h-1z M40,40h1v5h-1z M44,40h1v6h-1z M46,40h2v2h-2z M15,41h1v1h-1z M20,41h1v3h-1z M22,41h1v2h-1z M29,41h1v1h-1z M32,41h3v1h-3z M45,41h1v3h-1z M48,41h1v1h-1z M4,42h7v1h-7z M19,42h1v1h-1z M23,42h1v2h-1z M26,42h1v1h-1z M38,42h2v3h-2z M42,42h1v1h-1z M4,43h1v6h-1z M10,43h1v6h-1z M12,43h2v2h-2z M15,43h1v1h-1z M17,43h1v5h-1z M18,43h1v2h-1z M29,43h1v3h-1z M30,43h1v1h-1z M32,43h2v1h-2z M36,43h1v1h-1z M46,43h1v1h-1z M48,43h1v3h-1z M6,44h3v3h-3z M16,44h1v1h-1z M19,44h1v2h-1z M21,44h1v1h-1z M25,44h3v1h-3z M33,44h3v1h-3z M41,44h1v4h-1z M42,44h2v1h-2z M12,45h1v2h-1z M22,45h2v3h-2z M26,45h1v1h-1z M31,45h2v2h-2z M34,45h2v1h-2z M45,45h1v4h-1z M46,45h1v1h-1z M16,46h1v1h-1z M18,46h1v2h-1z M25,46h1v3h-1z M30,46h1v1h-1z M33,46h1v2h-1z M35,46h2v2h-2z M38,46h3v1h-3z M42,46h1v1h-1z M47,46h1v1h-1z M13,47h2v1h-2z M21,47h1v2h-1z M27,47h1v2h-1z M31,47h1v2h-1z M34,47h1v2h-1z M37,47h1v1h-1z M39,47h1v1h-1z M44,47h1v1h-1z M46,47h1v1h-1z M5,48h5v1h-5z M12,48h2v1h-2z M16,48h1v1h-1z M19,48h2v1h-2z M22,48h1v1h-1z M26,48h1v1h-1z M28,48h2v1h-2z M38,48h1v1h-1z M40,48h1v1h-1z M42,48h2v1h-2z M47,48h1v1h-1z" fill="#000000"/>
</svg>
